<svg width="112" height="112" viewBox="0 0 112 112" fill="none" xmlns="http://www.w3.org/2000/svg">
<circle cx="56" cy="56" r="56" fill="url(#paint0_linear_1325_553)"/>
<path d="M50.875 32.9375C50.875 36.3687 49.5119 39.6594 47.0857 42.0857C44.6594 44.5119 41.3687 45.875 37.9375 45.875C34.5063 45.875 31.2156 44.5119 28.7893 42.0857C26.3631 39.6594 25 36.3687 25 32.9375C25 29.5063 26.3631 26.2156 28.7893 23.7893C31.2156 21.3631 34.5063 20 37.9375 20C41.3687 20 44.6594 21.3631 47.0857 23.7893C49.5119 26.2156 50.875 29.5063 50.875 32.9375V32.9375ZM29.3125 32.9375C29.3125 35.225 30.2212 37.4188 31.8387 39.0363C33.4562 40.6538 35.65 41.5625 37.9375 41.5625C40.225 41.5625 42.4188 40.6538 44.0363 39.0363C45.6538 37.4188 46.5625 35.225 46.5625 32.9375C46.5625 30.65 45.6538 28.4562 44.0363 26.8387C42.4188 25.2212 40.225 24.3125 37.9375 24.3125C35.65 24.3125 33.4562 25.2212 31.8387 26.8387C30.2212 28.4562 29.3125 30.65 29.3125 32.9375V32.9375Z" fill="white"/>
<path d="M63.8125 45.875H65.9688C68.0607 45.8748 70.0815 46.6348 71.6547 48.0137C73.2279 49.3925 74.2464 51.2962 74.5204 53.3701L87.9323 47.4102C88.5888 47.1177 89.308 46.9939 90.0245 47.0501C90.741 47.1062 91.4321 47.3406 92.035 47.7318C92.6378 48.123 93.1334 48.6587 93.4766 49.2902C93.8198 49.9216 93.9997 50.6289 94 51.3476V83.5274C93.9994 84.2456 93.8194 84.9522 93.4765 85.5831C93.1335 86.2141 92.6384 86.7494 92.0361 87.1405C91.4338 87.5316 90.7434 87.7661 90.0275 87.8227C89.3116 87.8794 88.5929 87.7563 87.9366 87.4648L74.5204 81.5049C74.2464 83.5788 73.2279 85.4825 71.6547 86.8613C70.0815 88.2402 68.0607 89.0002 65.9688 89H33.625C31.3375 89 29.1437 88.0913 27.5262 86.4738C25.9087 84.8563 25 82.6625 25 80.375V54.5C25 52.2125 25.9087 50.0187 27.5262 48.4012C29.1437 46.7837 31.3375 45.875 33.625 45.875H63.8125ZM89.6875 83.5231V51.3519L74.5938 58.0578V76.8172L89.6875 83.5274V83.5231ZM29.3125 54.5V80.375C29.3125 81.5187 29.7669 82.6156 30.5756 83.4244C31.3844 84.2331 32.4813 84.6875 33.625 84.6875H65.9688C67.1125 84.6875 68.2094 84.2331 69.0181 83.4244C69.8269 82.6156 70.2812 81.5187 70.2812 80.375V54.5C70.2812 53.3563 69.8269 52.2594 69.0181 51.4506C68.2094 50.6419 67.1125 50.1875 65.9688 50.1875H33.625C32.4813 50.1875 31.3844 50.6419 30.5756 51.4506C29.7669 52.2594 29.3125 53.3563 29.3125 54.5V54.5Z" fill="white"/>
<path d="M63.8125 45.875C67.2437 45.875 70.5344 44.5119 72.9607 42.0857C75.3869 39.6594 76.75 36.3687 76.75 32.9375C76.75 29.5063 75.3869 26.2156 72.9607 23.7893C70.5344 21.3631 67.2437 20 63.8125 20C60.3813 20 57.0906 21.3631 54.6643 23.7893C52.2381 26.2156 50.875 29.5063 50.875 32.9375C50.875 36.3687 52.2381 39.6594 54.6643 42.0857C57.0906 44.5119 60.3813 45.875 63.8125 45.875V45.875ZM55.1875 32.9375C55.1875 30.65 56.0962 28.4562 57.7137 26.8387C59.3312 25.2212 61.525 24.3125 63.8125 24.3125C66.1 24.3125 68.2938 25.2212 69.9113 26.8387C71.5288 28.4562 72.4375 30.65 72.4375 32.9375C72.4375 35.225 71.5288 37.4188 69.9113 39.0363C68.2938 40.6538 66.1 41.5625 63.8125 41.5625C61.525 41.5625 59.3312 40.6538 57.7137 39.0363C56.0962 37.4188 55.1875 35.225 55.1875 32.9375V32.9375Z" fill="white"/>
<defs>
<linearGradient id="paint0_linear_1325_553" x1="25" y1="29" x2="81" y2="105.5" gradientUnits="userSpaceOnUse">
<stop stop-color="#D63384"/>
<stop offset="1" stop-color="#FD7E14"/>
</linearGradient>
</defs>
</svg>
